<?xml version="1.0" encoding="utf-8"?>
<!-- Generator: Adobe Illustrator 16.0.4, SVG Export Plug-In . SVG Version: 6.00 Build 0)  -->
<!DOCTYPE svg PUBLIC "-//W3C//DTD SVG 1.1//EN" "http://www.w3.org/Graphics/SVG/1.1/DTD/svg11.dtd">
<svg version="1.1" id="Ebene_1" xmlns="http://www.w3.org/2000/svg" xmlns:xlink="http://www.w3.org/1999/xlink" x="0px" y="0px"
	 width="265.2px" height="120.891px" viewBox="0 0 265.2 120.891" enable-background="new 0 0 265.2 120.891" xml:space="preserve">
<path d="M199.667,87.992c0.952,0.658,1.976,1.112,3.002,1.637c-0.044-0.169-0.23-0.454-0.002-0.499
	c-0.017,0.4,0.067,0.524,0.335,0.616c-0.033-0.154-0.066-0.31-0.098-0.465c0.298,0.02-0.013,0.566,0.447,0.292
	c-0.413,0.581,2.173,1.113,2.675,1.311c0.735,0.29,1.517,0.396,2.242,0.698c0.894,0.374,1.683,0.097,2.559,0.25
	c0.137,0.023,0.828,0.177,0.864,0.243c0.253,0.472,1.771,0.375,2.282,0.374c1.494-0.004,2.925-0.188,4.319-0.751
	c0.613-0.247,1.054-0.618,1.629-0.898c0.448-0.218,1.97-0.524,1.311,0.52c-0.699,1.105-1.559,2.52-2.874,2.981
	c-0.4,0.142-0.995,0.524-1.34,0.749c-0.48,0.316-1.107,0.115-1.513,0.333c-0.079,0.36-3.095,0.961-3.26,0.361
	c-0.316,0.433-0.643-0.049-1.127,0.411c0.022-0.367-0.821-0.313-1.208-0.331c-0.691-0.033-1.284,0.013-1.88-0.418
	c-0.71-0.517-1.822-0.124-2.416-0.692c-0.273-0.262-1.141-0.331-1.539-0.419c-0.36-0.079-1.346-0.454-1.708-0.348
	c-0.374,0.106-2.304-0.695-2.022-0.945c-0.426-0.467-2.223-1.335-2.652-0.928c-0.11-0.079-0.08-0.157,0.094-0.237
	c-0.349-0.101-0.674-0.146-0.948-0.408c-0.4-0.384-0.806-0.556-1.196-0.865c0.127,0.022,0.198-0.018,0.214-0.12
	c-0.651-0.313-2.068-0.804-2.246-1.419c0.044-0.098,0.109-0.181,0.193-0.249c-0.585,0-0.901-0.19-1.311-0.593
	c-0.265-0.261-0.528-0.522-0.792-0.785c-0.375,0.204-0.955,0.112-1.363,0.132c-0.321,0.017-1.613,0.281-1.879,0.13
	c-0.33-0.185-0.872-0.298-1.238-0.244c-0.896,0.129-7.799-0.244-7.927-0.966c0.152,0.025,0.721,0.23,0.775,0.04
	c-1.482-0.548-3.15-0.564-4.695-0.93c-1.574-0.372-3.04-1.069-4.513-1.745c-0.493-0.226-2.574-1.045-2.577-1.466
	c-1.221,0.023-2.125-1.28-3.043-1.708c-0.54-0.251-0.968-0.632-1.478-0.899c-0.611-0.32-1.264-0.312-1.399-1.094
	c-0.157-0.915,1.617-2.352,2.258-2.82c0.695-0.506,0.75-0.532,1.62-0.262c0.435,0.135,0.849,0.505,1.263,0.723
	c1.513,0.792,3.01,1.982,4.678,2.479c0.092-0.129-0.451-0.515-0.545-0.602c0.997,0.393,1.916,1.54,2.988,1.689
	c0.663,0.091,0.555,0.216,1.121,0.525c0.42,0.23,0.915-0.037,1.247,0.028c0.055,0.099,0.11,0.199,0.166,0.299
	c0.32,0.149,0.732,0.157,1.068,0.291c0.554,0.226,0.527,0.391,0.982,0.204c0.188-0.077,0.629,0.094,0.773,0.159
	c0.578,0.259,4.115,1.094,4.417,0.342c-0.118-0.047-0.548-0.362-0.471-0.451c0.334-0.356-0.764-0.753-0.796-1.065
	c0.104,0.094,0.197,0.101,0.281,0.018c0.127-0.364-0.423-0.346-0.665-0.537c-0.793-0.625-0.774-0.72-0.168-1.487
	c-0.33,0-1.554,0.291-0.988-0.295c-0.269,0.037-0.347-0.072-0.232-0.329c-0.145,0.119-0.241,0.122-0.29,0.007
	c0.367-0.4,0.277-0.471-0.101-0.324c-0.467-0.44-0.28-0.603-0.855-1.041c0.096-0.169,0.333-0.014,0.513,0.005
	c-0.162-0.39-0.386-0.607-0.413-1.08c-0.563,0.354-1.168-0.153-0.272-0.296c-0.268-0.122-0.535-0.242-0.803-0.363
	c0.189-0.354,0.756,0.488,0.877,0.004c-0.772-0.212-0.139-0.397-0.592-0.832c-0.542,0.272-0.414,0.177-0.647-0.271
	c-0.443,0.052-0.877,0.095-1.313,0.191c-0.64,0.143-1.222,0.407-1.877,0.478c-1.29,0.14-1.116-0.792-1.936-1.053
	c0.292-0.238,0.733-0.672,0.694-0.859c0.503,0.023,1.172-0.432,1.608-0.208c-0.07-0.168-0.142-0.337-0.215-0.505
	c0.556,0.18,2.009-0.45,2.296,0.01c0.326-0.352-0.361-0.723-0.043-1.196c-0.074-0.053-0.323-0.153-0.543-0.265
	c-0.2-0.102-0.137-0.833-0.406-0.189c-0.113-0.188-0.228-0.376-0.341-0.564c0.171,0.035,0.344,0.068,0.515,0.103
	c-0.044-0.651-0.321-1.061-0.949-1.322c0.079-0.036,0.126-0.097,0.138-0.182c-0.15,0.167-0.262,0.185-0.333,0.052
	c0.374-0.354-0.356-1.141-0.53-1.604c-0.299,0.117-0.397-1.017-0.52-1.208c-0.29,0.535-0.531-0.553-0.632-0.849
	c0.059,0,0.117,0,0.177,0c-0.573-0.735-0.709-1.672-1.17-2.436c-0.289-0.476-0.491-3.612-0.849-3.638
	c0.207-0.542-0.207-0.956-0.026-1.553c0.06-0.197-0.07-1.116-0.212-1.208c-0.171-0.117,0.217-0.224,0.243-0.342
	c-1.592-0.604-3.943-0.632-4.512-2.522c0.472-0.077,0.287-0.276,0.717-0.419c0.214-0.071,0.766,0.103,1.007,0.164
	c0.432,0.098,0.923,0.611,1.279,0.512c-0.073,0.054-0.145,0.106-0.218,0.16c0.381-0.054,0.978,0.054,1.301-0.149
	c0.292-0.183,0.558-0.481,0.165-0.626c0.193-0.106,0.28-0.264,0.263-0.472c-0.136-0.461,0.269-0.345-0.276-0.654
	c0.05-0.176,0.188-0.189,0.411-0.036c-0.141-0.498-0.042-0.633-0.408-0.876c0.345-0.416-0.249-0.342,0.314-0.436
	c-0.604-0.357-1.21-0.715-1.814-1.071c-0.314-0.186-1.817-0.75-1.021-0.854c-0.222-0.166-0.413-0.327-0.574-0.448
	c-0.53-0.345,0.251-0.541-0.378-0.604c0.355-0.324,0.629-0.379,0.929-0.795c-0.091,0.026-0.113-0.007-0.066-0.099
	c0.07,0.026,2.562,1.8,2.534,1.413c-0.193-0.033-0.27,0.017-0.23,0.15c0.241-0.104,0.767,0.255,0.796-0.221
	c0.015-0.264,0.524-0.709,0.438-0.88c-0.189-0.374-0.23-0.291-0.088-0.732c0.276-0.067,0.261-0.197-0.046-0.391
	c0.335-0.157,0.486-0.243,0.199,0.065c0.598,0.098,0.035-0.977,0.78-0.903c-0.123-0.542-0.267,0.054-0.403-0.295
	c0.125-0.055,0.693-0.207,0.631-0.368c-0.917,0.237,0.186-0.759-0.585-0.545c0.076-0.235,0.156-0.467,0.239-0.698
	c0.44-0.192,0.479-0.305,0.113-0.342c0.178-0.122,0.933-1.934,1.05-1.846c0.254,0.196,0.316-0.277,0.157-0.519
	c-0.102,0.825-0.039-0.107-0.44-0.079c0.104-0.318,1.171-0.627,0.742-1.04c0.21-0.139,0.419-0.279,0.629-0.419
	c-0.297-0.343-0.434,0.042-0.734,0.042c0.123-0.353,0.25-0.195,0.277-0.308c-0.062-0.036-0.123-0.072-0.185-0.108
	c0.07-0.24,0.25-0.198,0.538,0.123c-0.044-0.361,0.018-0.565-0.305-0.766c0.192-0.072,0.384-0.144,0.575-0.215
	c-0.452,0.001-0.933-0.146-1.381-0.09c-0.156,0.06-0.316,0.108-0.479,0.145c0.015,0.003-0.44-0.228-0.464-0.218
	c-0.513,0.225-0.884-0.004-1.408,0.022c-0.749,0.036-1.685,0.167-2.423,0.035c-0.146-0.028-1.097-0.457-0.957,0.03
	c-0.604-0.105-1-0.232-1.651-0.232c-0.028-0.515-2.889,0.428-2.984-0.251c-0.105-0.026-0.147,0.044-0.125,0.209
	c-0.294,0.015-0.588,0.032-0.883,0.048c-0.559,0.033-1.097-0.021-1.453,0.401c-0.167,0.193-0.378,0.302-0.635,0.324
	c0.085,0.17,0.065,0.308-0.066,0.413c-0.109,0.09-0.691-0.037-0.379,0.25c-0.664,0.181-0.611,0.163-1.361-0.293
	c-0.409,0.192-0.535-0.454-1.064-0.383c-0.293,0.039-0.072-1.77-0.059-1.927c0.07,0.073,0.139,0.146,0.208,0.219
	c0.385-0.565,0.27-0.614,0.986-0.978c0.619-0.316,1.297-0.478,1.931-0.753c1.484-0.644,2.941-0.792,4.522-1.035
	c1.344-0.203,3.007,0.004,4.371,0.075c1.712,0.098,3.394,0.101,5.108,0.058c1.551-0.04,3.089-0.245,4.633-0.28
	c0.686-0.015,1.164-0.414,1.548-0.946c0.411-0.571,0.968-0.876,1.453-1.356c1.792-1.777,3.617-4.147,6.011-5.21
	c0.606-0.277,0.927-0.755,1.494-1.105c0.658-0.407,1.332-0.789,1.997-1.184c1.234-0.734,2.631-1.177,3.94-1.751
	c2.831-1.243,6.074-2.28,9.126-2.81c2.678-0.463,5.723-0.69,8.357-0.021c1.159,0.302,2.241,0.793,3.379,1.113
	c1.214,0.342,2.24,1.706,3.335,1.85c-0.018,0.122-0.058,0.085-0.169,0.083c0.199,0.295,0.869,0.33,1.17,0.583
	c0.345,0.29,0.716,0.53,1.054,0.834c0.431,0.389,1.567,0.814,1.439,1.636c0.092,0.029,1.745,1.109,2.052,1.251
	c-0.02,0.113-0.09,0.141-0.211,0.083c0.2,0.279,0.227,0.551,0.583,0.435c-0.092,0.53,1.852,2.306,2.479,2.627
	c-0.157,0.05,1.352,2.083,2.098,2.152c0.005-0.007,1.02,1.899,1.026,1.818c0.62,0.561,1.016,0.94,1.502,1.652
	c0.202,0.294,0.537,0.519,0.64,0.869c0.109,0.364,0.583,0.789,0.732,0.995c0.225,0.316,0.421,0.521,0.672,0.81
	c0.262,0.299,2.517,4.371,2.517,4.996c0.069,1.283,0.145,2.334-0.406,3.529c3.293,0.63,6.524,0.271,9.808,0.342
	c1.421,0.029-0.406,2.294-0.374,2.805c-0.129,0.083-0.273,0.131-0.43,0.144c0,0.531-0.142,0.917-0.258,1.428
	c-0.154,0.676-0.559,0.72-1.196,0.774c-1.38,0.116-2.962-0.116-4.3,0.137c-0.443,0.081-1.25-0.093-1.735-0.146
	c-0.402-0.039-1.044-0.048-1.403-0.214c-0.605-0.28-1.454-0.169-2.118-0.311c-0.873-0.185-1.672-0.358-2.541-0.078
	c-0.722,0.231-3.14,0.012-3.59-0.018c-0.457-0.03-2.122-0.079-2.527-0.187c-0.37-0.098-1.436-0.713-1.716-0.855
	c0.058,0.029-1.083,0.051-1.322-0.004c-0.415-0.095-0.823-0.216-1.23-0.339c-0.366-0.109-1.762-0.764-2.14-0.883
	c-0.413-0.125-1.596-0.635-2.101-0.865c-0.603-0.277-1.221-0.494-1.815-0.782c-0.249-0.12-1.189-0.499-1.162-0.273
	c-0.931-0.586-4.581-0.55-4.571-2.176c0.003-0.626-0.374-1.083,0.18-1.496c0.869-0.647,1.84-1.168,2.897-1.429
	c1.61-1.12,2.908-0.325,4.591-0.034c0.57,0.099,5.568,1.52,5.685,1.311c0.119,0.542,2.612,0.973,2.886,0.988
	c0.615,0.039,1.004,0.265,1.58,0.395c1.04,0.239,2.416,0.807,3.479,0.781c0.605-0.017,2.538,1.068,2.174-0.149
	c-0.169-0.578-0.146-1.207-0.463-1.74c-0.134-0.224-0.607-0.995-0.311-1.091c-0.247-0.036-0.414-0.63-0.401-0.649
	c-0.41-0.349-0.705-1.017-0.974-1.489c-0.708-1.239-1.607-2.323-2.444-3.473c-0.397-0.547-0.701-1.195-1.123-1.716
	c-0.105-0.128-1.224-1.636-1.489-2.007c-0.208-0.292-2.032-2.002-2.316-2.679c-0.378-0.219-0.69-0.521-0.939-0.879
	c-0.273-0.392-3.055-2.525-3.063-2.532c-0.284-0.306-1.917-1.491-2.526-1.868c-0.668-0.416-1.766-0.789-2.275-1.384
	c-0.215-0.252-2.289-0.566-2.092-0.89c-0.589-0.142-1.237-0.071-1.804-0.185c0.428-0.225-0.602-0.227-0.792-0.233
	c-0.457-0.019-0.523-0.149-1.035-0.124c-0.698,0.036-1.896,0.132-2.4-0.262c0.092,0.478-0.055,0.527-0.446,0.152
	c0.032,0.424-0.622,0.189-0.855,0.241c-0.702,0.152-1.411,0.22-2.123,0.347c0.159-0.395-0.212,0.059-0.466,0.099
	c-0.534,0.087-1.048,0.244-1.585,0.319c-1.031,0.141-2,0.476-3.079,0.836c-2.117,0.701-4.108,1.976-6.266,2.452
	c0.302,0.352-1.629,1.167-2.074,1.446c-1.014,0.632-2.026,1.378-2.864,2.227c-0.439,0.441-0.874,0.886-1.327,1.311
	c-0.146,0.207-0.341,0.336-0.581,0.392c0.12,0.185,0.08,0.327-0.119,0.428c-0.192,0.088-0.581,0.818-0.63,1.022
	c-0.091,0.374,0.801,0.732,1.026,0.858c2.004,1.116,4.121,2.196,6.226,3.107c0.779,0.338,2.227,1.058,2.688,1.81
	c0.156,0.254,1.632,0.889,1.451,1.205c0.345-0.04,0.897,0.502,1.173,0.788c0.273,0.286,0.291,0.53,0.6,0.771
	c0.236,0.185,0.509,0.484,0.644,0.753c0.428,0.861,0.989,1.549,1.552,2.217c-0.178-0.023-0.252,0.029-0.221,0.159
	c0.774-0.087,0.695,1.112,1.01,1.434c0.339,0.348,1.264,1.326,1.04,1.829c0.457,0.051,0.931,0.756,1.206,1.229
	c0.157,0.271,0.143,0.644,0.405,0.853c0.373,0.298,0.715,0.63,0.843,1.106c0.23,0.859,0.771,1.707,0.912,2.567
	c0.063,0.389,0.162,1.742,0.45,1.958c-0.611,0.336,0.528,1.526-0.128,2.071c0.861,0.171,0.618,0.636,0.531,1.374
	c-0.049,0.428,0.116,0.817,0.116,1.197c0.002,0.27-0.001,3.086-0.438,2.897c0.043,0.207,0.281,0.221,0.283,0.228
	c0.008,0.265-0.089,0.483-0.295,0.652c0.147,0.082,0.111,0.457,0.107,0.573c-0.03,0.738-0.537,1.301,0.057,1.767
	c0.091-0.127-0.079-0.169,0.022-0.313c0.186,0.233,0.508,0.163,0.76,0.209c0.361,0.068,0.541,0.439,0.985,0.566
	c0.448,0.128,0.722,0.5,1.007,0.839c-0.225,0.367,0.058,0.176,0.084,0.497c0.101,1.235-4.696-1.295-4.009,1.003
	c0.184,0.622-0.432,2.047-0.629,2.671c-0.168,0.532-0.305,0.93-0.438,1.381c-0.297,1.004-0.36,0.901,0.644,1.297
	c1.647,0.648,3.314,1.967,4.962,2.876c0.192,0.106,0.565,0.249,0.676,0.472c0.175,0.356-0.417,0.526-0.096,0.71
	c-0.348,0.425-1.185,0.21-1.616,0.02c-1.733-0.755-3.016-1.831-4.827-2.418c-0.713-0.232-0.759-0.296-1.11,0.357
	c-0.268,0.497-0.585,0.961-0.901,1.428c-0.651,0.966-1.188,2.006-1.835,2.974c-0.463,0.691-4.478,4.84-4.295,5.069
	c-0.151,0.015-0.305,0.03-0.457,0.045C197.213,86.686,198.502,87.222,199.667,87.992 M203.197,58.039
	c0.185-0.239-0.72-0.19,0.036-0.428c-0.635-0.258-0.124-0.117-0.273-0.702c-0.011-0.044-0.014-0.805,0.007-0.78
	c-0.28-0.316-0.172-0.726-0.204-1.101c-0.04-0.486-0.324-1.049-0.453-1.524c-0.351-1.304-1.347-2.856-2.123-3.943
	c-1.065-1.49-1.935-3.197-2.819-4.804c-0.87-1.58-2.425-2.776-3.849-3.837c-1.415-1.053-3.085-1.842-4.676-2.602
	c-0.744-0.355-4.742-2.732-5.379-2.031c-0.43,0.487-1.088,1.227-1.271,1.85c-0.112,0.381-0.25,0.497-0.431,0.824
	c-0.181,0.317-0.254,1.062-0.479,1.294c-0.306,0.307-0.401,0.691-0.603,1.163c-0.157,0.368-1.604,1.89-0.981,2.292
	c-0.691,0.715-0.829,1.788-1.244,2.741c-0.144,0.334-0.044,0.589-0.108,0.923c-0.063,0.33-0.305,0.443-0.331,0.791
	c-0.022,0.283-0.04,1.111-0.352,1.294c0.102-0.056,0.152-0.041,0.152,0.046c-0.309,0.064-0.62,1.276-0.635,1.651
	c-0.032,0.822-0.082,1.57-0.05,2.394c0.015,0.379-0.175,0.538-0.159,0.903c0.026,0.735,0.017,1.507,0.167,2.22
	c0.211,1.028,0.159,2.102,0.457,3.104c0.471,1.621,1.064,3.097,1.823,4.604c1.388,2.758,3.093,5.386,4.839,7.964
	c1.049,1.553,2.184,3.056,3.339,4.532c0.512,0.651,1.039,1.29,1.581,1.915c0.265,0.304,1.24,1.747,1.559,1.188
	c0.173,0.153,0.345,0.308,0.516,0.462c-0.367,0.208-0.309,0.292,0.175,0.25c-0.428,0.306-0.065,0.325,0.258,0.562
	c0-0.084,0-0.168,0-0.252c0.59,0.134,0.952,1.101,1.617,1.279c0.637,0.171,1.767-0.192,2.388-0.425
	c1.886-0.708,3.132-3.329,3.852-5.038c0.952-2.251,1.81-4.627,2.449-6.99c0.295-1.065,0.44-2.186,0.652-3.27
	c0.167-0.85,0.945-3.006,0.277-3.551c0.782-0.175,0.215-0.07,0.039-0.464c-0.107-0.243,0.066-0.772,0.369-0.775
	c-0.759-0.106-0.141-0.085,0.072-0.097c-0.156-0.095-0.313-0.19-0.471-0.284c0.076-0.145,0.324,0.069,0.286-0.07
	c-0.105-0.472-0.012-0.86,0.023-1.338C203.284,59.49,202.82,58.188,203.197,58.039 M179.385,73.048
	c-0.149,0.027-0.296,0.055-0.445,0.083c0.085,0.185,0.171,0.368,0.256,0.552C179.259,73.472,179.321,73.259,179.385,73.048"/>
<path d="M205.899,40.559c0.258-0.171,0.157-0.431,0.007-0.527c-0.267-0.173-0.454-0.576-0.909-0.381
	c0.007-0.091,0.012-0.159,0.019-0.258c-0.228,0.011-0.45,0.022-0.691,0.036c0.029-0.084,0.057-0.168,0.092-0.274
	c-0.154-0.038-0.302-0.072-0.455-0.109c-0.113,0.22,0.166,0.533-0.221,0.632c0.125,0.038,0.23,0.071,0.395,0.12
	c-0.395,0.117-0.629,0.526-0.439,0.781c-0.182-0.039-0.318-0.078-0.455-0.094c-0.261-0.036-0.573-0.143-0.747,0.122
	c-0.223,0.342-0.583,0.625-0.46,1.148c0.136,0.586,0.181,1.193,0.261,1.793c0.036,0.265,0.178,0.334,0.407,0.172
	c0.144-0.099,0.28-0.214,0.404-0.336c0.417-0.41,0.937-0.673,1.406-1.006c0.431-0.308,0.828-0.669,1.203-1.043
	c0.159-0.157,0.228-0.406,0.324-0.621C206.05,40.693,205.964,40.629,205.899,40.559"/>
<g>
	<path d="M38.916,18.998c1.144,0,2.174,1.22,2.555,2.136l0.458,1.144c0.61,1.448,1.373,3.05,1.831,4.461
		c0.38,0.915,0.61,2.097,0.915,3.089c0.458,1.144,0.839,2.478,1.373,3.66c0.229,0.61,0.229,1.335,0.534,1.945
		c0.039,0.076,0.076,0.114,0.153,0.19c0.61-1.144,0.915-2.746,1.601-4.309c0.268-0.611,0.572-1.258,0.763-1.945
		c0.229-0.687,0.344-1.373,0.573-2.021s0.458-1.334,0.648-1.982c0.609-2.174,1.487-3.852,1.944-6.178
		c0.077-0.419,0.306-0.725,0.497-1.106c0.343-0.647,0.724-1.334,1.677-1.334c0.573,0,0.915,0.419,1.029,0.953
		c0.153,0.153,0.229,0.344,0.229,0.534c-0.114,1.526-0.458,2.975-0.763,4.309c-0.152,0.726-0.419,1.412-0.686,2.06
		c-0.572,1.487-0.916,3.013-1.525,4.423c-0.419,1.182-0.763,2.364-1.258,3.471c-0.153,0.381-0.381,0.686-0.573,1.066
		c-0.305,0.726-0.534,1.526-0.915,2.174c-0.343,0.61-0.648,1.258-0.953,1.907c-0.305,0.687-0.763,1.258-1.106,1.906
		c-0.267,0.496-0.61,0.954-1.373,0.954h-0.076c-0.686-0.039-1.106-0.495-1.373-0.954c-0.534-0.877-1.183-1.602-1.602-2.631
		c-1.029-2.555-2.25-4.766-3.241-7.703c-0.419-1.22-0.648-2.592-1.145-3.775c-0.419-1.487-0.876-2.86-1.144-4.5
		c-0.037-0.266-0.076-0.534-0.076-0.762C37.886,19.454,38.152,18.998,38.916,18.998z"/>
	<path d="M58.216,27.692v-0.153c-0.039-0.342-0.115-0.686-0.115-1.029v-0.992c0-0.152-0.039-0.342-0.039-0.496
		c0-0.19-0.039-0.458-0.039-0.648c0-0.305,0-0.572-0.037-0.877l-0.115-0.686c-0.076-0.382-0.114-0.763-0.153-1.182
		c0-0.19-0.037-0.344-0.037-0.534v-0.38c0-0.153-0.039-0.229-0.039-0.382c0-0.152-0.039-0.266-0.039-0.419
		c-0.037-0.266-0.037-0.571-0.037-0.839v-0.992c0-0.496,0.152-0.915,0.266-1.258c0.153-0.648,0.534-1.449,1.144-1.678
		c0.572-0.229,1.221-0.458,1.869-0.572c1.144-0.381,2.44-0.61,3.928-0.61h0.381c0.382,0,0.724,0.039,1.106,0.039h0.19
		c0.877,0,1.677,0.152,2.287,0.344c0.726,0.305,1.335,0.648,1.335,1.677v0.305c-0.114,0.953-0.763,1.563-1.526,1.945h-0.076
		c-0.076,0.038-0.229,0.115-0.305,0.115c-0.305,0.037-0.534,0.076-0.838,0.076c-0.153,0-0.305-0.039-0.458-0.039h-3.355
		c-0.763,0-1.182,0-1.831,0.229h-0.039c0.229,1.106,0.268,2.174,0.61,3.204c0.039,0.152,0.114,0.381,0.153,0.534l0.115,0.571
		c0.076,0,0.19-0.037,0.266-0.037c0.153-0.039,0.268-0.039,0.421-0.039h1.219c0.344,0,0.725-0.039,1.068-0.039h0.573
		c1.105,0.229,3.279,0,3.279,1.831c0,0.114-0.039,0.229-0.039,0.343v0.076c-0.076,0.458-0.229,0.953-0.573,1.258
		c-0.305,0.268-0.686,0.458-1.144,0.573H67.52c-0.268,0.076-0.572,0.19-0.877,0.268c-0.343,0.076-0.724,0.076-1.067,0.113
		l-0.038,0.039c-0.382,0.039-0.687,0.114-1.068,0.153h-0.114c-0.19,0-0.382,0.037-0.573,0.037c-0.458,0.039-1.029,0.153-1.602,0.305
		v0.687c0,0.229,0.039,0.496,0.039,0.725c0,0.19,0.038,0.419,0.038,0.61c0,0.229,0.039,0.419,0.039,0.611
		c0,0.266,0.039,0.571,0.039,0.839c0,0.8,0.114,1.602,0.266,2.287c0.039,0.153,0,0.344,0.039,0.496
		c0.039,0.343,0.076,0.648,0.19,0.953c0,0.039,0.039,0.115,0.039,0.153c1.563-0.229,3.584-0.419,5.225-0.763
		c0.266-0.037,0.533-0.076,0.8-0.076c1.219,0,2.479,0.572,2.479,1.831c0,0.076-0.039,0.115-0.039,0.19
		c-0.153,0.877-0.344,1.563-1.144,1.792c-0.992,0.229-1.945,0.573-2.975,0.763c-0.953,0.151-1.716,0.534-2.898,0.534h-0.839
		l-0.573-0.039c-1.563,0-2.821-0.19-3.394-1.297c-0.114-0.19-0.19-0.495-0.266-0.724c-0.153-0.381-0.305-0.686-0.305-1.182
		c0-0.342-0.153-0.725-0.153-1.105c-0.038-0.153-0.038-0.343-0.038-0.534V34.06v-0.573C58.75,31.505,58.558,29.445,58.216,27.692z"
		/>
	<path d="M75.036,34.365c0-2.211-0.114-4.309-0.19-6.597c0-0.229-0.039-0.458-0.039-0.648v-0.686l-0.037-0.419v-1.45
		c0-0.266,0-0.534-0.039-0.8c0-0.115-0.039-0.268-0.039-0.382c-0.038-0.266-0.038-0.534-0.038-0.8v-0.114
		c0-0.344-0.039-0.686-0.039-1.029c0-0.19,0.039-0.344,0.039-0.534c0-0.229,0-0.458-0.039-0.687c0-1.183,0.076-3.089,0.573-3.928
		c0.266-0.419,0.761-0.686,1.219-0.876c0.573-0.307,2.365-0.153,3.318-0.344c0.229-0.039,0.419-0.076,0.609-0.076h1.602
		c0.19,0,0.343,0.038,0.534,0.038c0.381,0,0.724,0.039,1.106,0.076h0.152c2.25,0.268,4.003,1.145,4.423,3.242
		c0.039,0.19,0.077,0.381,0.077,0.534c0,0.344-0.039,0.686-0.039,1.029l-0.039,0.076c-0.152,1.641-0.534,3.204-1.258,4.234
		c-0.266,0.305-0.457,0.647-0.763,0.953c-0.152,0.19-0.305,0.342-0.457,0.534c-0.076,0.113-0.229,0.19-0.305,0.305
		c0.229,0.495,0.381,0.99,0.648,1.448c0.19,0.305,0.228,0.61,0.419,0.915l0.686,1.373c0.305,0.611,0.573,1.182,0.877,1.831
		c0.115,0.268,0.344,0.497,0.458,0.802c0.534,0.839,1.029,1.829,1.334,2.974c0.076,0.228,0.153,0.496,0.153,0.762
		c0.037,0.229,0.037,0.458,0.037,0.726v0.266c0,0.19-0.037,0.344-0.076,0.534v0.076c-0.115,0.497-0.19,0.916-0.534,1.183
		c-0.344,0.305-0.725,0.534-1.221,0.534c-0.305,0-0.647-0.152-0.876-0.266c-0.382-0.192-0.763-0.497-0.992-0.916
		c-0.229-0.305-0.343-0.725-0.495-1.029c-0.114-0.229-0.343-0.61-0.382-0.877c-0.19-0.571-0.305-1.144-0.534-1.639
		c-0.305-0.611-0.61-1.296-0.839-1.984c-0.152-0.305-0.229-0.609-0.381-0.915c-0.305-0.534-0.763-1.068-0.992-1.677
		c-0.305-0.573-0.495-0.954-0.915-1.526c-0.115-0.152-0.229-0.344-0.419-0.496c-0.039-0.039-0.115-0.076-0.153-0.114
		c-0.076,0-0.19,0.076-0.266,0.076c-0.077,0.039-0.19,0.039-0.268,0.039c-0.344,0.076-0.686,0.152-1.068,0.19l-0.571,0.115
		c-0.153,0.039-0.648,0.039-0.801,0.039v0.076c0,0.115-0.038,0.267-0.038,0.458c0,2.402,0.115,4.996,0.115,7.322
		c0,0.151-0.039,0.305-0.039,0.457v0.153c0,1.373-0.229,2.326-0.802,3.051c-0.113,0.153-0.457,0.268-0.686,0.268
		c-0.076,0-0.153-0.039-0.229-0.039c-1.334-0.419-1.526-2.326-1.526-4.042C74.997,35.547,75.036,34.937,75.036,34.365z
		 M78.201,25.098v0.039h0.039c0.266,0.039,0.495,0.076,0.686,0.076h0.229c1.182-0.19,2.211-0.419,3.165-0.724
		c1.375-0.573,2.594-1.373,2.67-3.318v-0.037c0-0.802-0.457-1.412-0.876-1.831c-0.419-0.305-1.106-0.419-1.602-0.534
		c-0.419-0.076-0.877-0.115-1.297-0.115h-1.258c-0.573,0.039-0.992,0.19-1.373,0.381v0.192c-0.039,0.419-0.039,0.839-0.077,1.258
		c0,0.305-0.037,0.609-0.037,0.915c0,0.268-0.039,0.458-0.039,0.724l-0.039,0.458v0.229C78.391,23.611,78.278,24.335,78.201,25.098z
		"/>
	<path d="M102.993,38.521c-0.229,0-0.458,0.037-0.687,0.037c-1.258,0.192-2.517,0.344-3.623,0.726
		c-0.458,0.152-0.877,0.266-1.487,0.266h-0.305c-1.678-0.151-2.784-0.572-3.47-1.753c-0.19-0.344-0.268-0.726-0.268-1.106v-0.153
		c0-0.839,0.153-1.487,0.305-2.173c0.077-0.648,0.114-1.258,0.114-1.907c0.039-1.526,0.115-3.089,0.153-4.615l0.19-4.575
		c0-0.687,0.076-1.335,0.076-2.021c0-0.382,0.039-0.687,0.039-1.068c0.076-0.839,0.153-1.716,0.724-2.098
		c0.229-0.152,0.458-0.305,0.763-0.305h0.039c1.373,0,1.487,1.907,1.639,3.127c0.039,0.419,0.115,0.878,0.115,1.297v1.105
		c0,0.076-0.039,0.19-0.039,0.268c0,0.228,0.039,0.495,0.039,0.724v0.115c0,0.266-0.039,0.534-0.039,0.8
		c0,0.458-0.076,3.05-0.076,3.508v0.724v0.344c0,0.19,0.076,0.381,0.076,0.573v0.19c0,0.115-0.037,0.267-0.037,0.381v0.419v0.497
		c-0.039,0.229,0,0.457-0.039,0.686v0.572v0.19v0.229c-0.037,0.19-0.037,0.419-0.037,0.61v0.076c0,0.192,0.037,0.419,0.037,0.611
		h1.029c0.268,0,0.573-0.039,0.84-0.039c0.571,0,1.105-0.115,1.639-0.115c0.305,0,0.61,0,0.877-0.039v-0.037h0.038
		c0.42-0.039,0.84-0.076,1.259-0.076c0.342,0,0.686,0.037,1.029,0.037c1.373,0,3.05,0.153,3.05,1.563
		c0,1.373-1.144,2.326-2.478,2.326c-0.382,0.039-0.802,0.077-1.183,0.077H102.993z"/>
	<path d="M121.566,34.021c-0.266,0.039-0.495,0.039-0.762,0.076l-1.259,0.114c-1.715,0.192-3.66,0.192-5.452,0.419l-0.916,0.115
		c-0.342,0.572-0.533,1.221-0.876,1.831c-0.687,1.221-0.534,1.868-1.221,3.089c-0.114,0.229-0.266,0.495-0.457,0.687
		c-0.306,0.419-0.763,0.991-1.45,0.991c-0.19,0-0.381-0.038-0.571-0.115c-0.573-0.305-1.031-0.686-1.031-1.563
		c0-1.182,0.534-1.982,0.725-2.936c0.42-1.45,0.458-1.831,1.106-3.128c0.076-0.151,0.114-0.305,0.153-0.458
		c0.228-0.686,0.496-1.41,0.648-2.134c0.419-1.945,1.181-3.661,1.715-5.492c0.382-1.068,0.877-2.059,1.145-3.126
		c0.19-0.724,0.419-1.487,0.571-2.211c0.19-0.726,0.382-1.487,0.763-2.135c0.153-0.305,0.344-0.61,0.496-0.917
		c0.382-0.8,1.067-1.219,1.792-1.219c1.869,0,2.365,1.906,3.052,3.089c0.648,1.258,1.41,2.516,1.982,3.813l0.458,1.029
		c0.152,0.343,0.342,0.687,0.534,0.992l0.457,0.915c0.305,0.687,0.648,1.45,0.877,2.174c0.229,0.648,0.344,1.334,0.573,1.907
		c0.305,0.648,0.495,1.334,0.724,2.021c0.344,0.915,1.258,3.431,1.602,4.385c0.152,0.458,0.229,0.992,0.229,1.525
		c0,1.068-0.343,2.06-1.487,2.06h-0.039c-0.839,0-1.412-0.497-1.831-0.992c-0.457-0.61-1.41-2.745-1.677-3.547v-0.037
		C121.949,34.86,121.795,34.44,121.566,34.021z M114.551,30.781c0.076,0,0.152-0.039,0.228-0.039
		c0.573-0.076,1.106-0.151,1.679-0.19c1.373-0.229,2.363-0.724,3.584-1.144c-0.076-0.153-0.114-0.343-0.153-0.534
		c-0.534-1.564-0.763-2.403-1.296-3.891c-0.267-0.686-0.534-1.41-0.8-2.097c-0.076-0.19-0.153-0.419-0.267-0.61
		c-0.039,0.076-0.039,0.152-0.077,0.229c-0.457,1.258-0.839,2.363-1.182,3.584c-0.305,0.954-0.61,1.945-1.068,2.86
		c-0.113,0.267-0.152,0.534-0.266,0.8c-0.076,0.192-0.19,0.382-0.229,0.573C114.665,30.476,114.627,30.627,114.551,30.781z"/>
	<path d="M130.992,37.11l-0.572-0.458c-0.648-0.647-1.029-1.487-1.334-2.402c-0.306-0.648-0.611-1.373-0.611-2.287
		c0-1.64,0.077-3.013,0.419-4.424l0.229-1.029c0.114-0.763,0.305-1.526,0.648-2.136c0.801-2.479,2.135-4.308,3.355-6.329
		c0.497-0.839,1.068-1.526,1.793-2.174c0.686-0.686,1.295-1.41,2.707-1.41h0.076c0.801,0.076,1.831,0.152,2.211,0.686
		c0.229,0.305,0.458,0.61,0.497,0.992c0.037,0.229,0,0.495,0,0.724c0,1.258-0.839,1.792-1.602,2.326
		c-0.687,0.495-1.258,0.953-1.792,1.563c-1.678,1.945-3.966,4.195-4.462,7.207c-0.076,0.497-0.076,0.953-0.076,1.45v0.495
		c0,1.297,0.19,2.288,0.534,3.318c0.228,0.571,0.496,1.258,0.954,1.677c0.19,0.115,0.381,0.267,0.571,0.381
		c0.496,0.192,1.029,0.268,1.716,0.268l0.458-0.114c1.029-0.268,1.792-0.687,2.555-1.221c0.228-0.19,0.457-0.342,0.686-0.495
		c0.916-0.686,1.182-1.602,1.411-2.975c0.038-0.19,0.038-0.38,0.038-0.572c0-0.419-0.038-0.8-0.076-1.22v-1.563
		c-0.19,0.037-0.38,0.037-0.571,0.037c-0.458,0-0.916-0.076-1.373-0.114c-0.153,0-0.343-0.038-0.497-0.038
		c-0.724-0.076-1.373-0.229-1.373-1.067c0-0.573,0.19-0.954,0.344-1.412c0.114-0.38,0.495-0.571,0.877-0.495h0.152
		c0.458,0.076,0.916,0.152,1.45,0.152c0.495,0.077,1.029,0.153,1.6,0.153c0.877-0.153,1.26-0.229,2.213-0.305
		c0.266-0.039,0.534-0.153,0.8-0.229l0.458-0.114c0.419-0.115,0.343-0.229,0.915-0.229h0.076c0.916,0,1.64,0.419,2.021,0.992
		c0.114,0.19,0.153,0.381,0.153,0.571c0,0.726-0.877,1.297-1.487,1.411c-0.992,0.229-0.992,0.153-1.868,0.497
		c-0.039,0.037-0.115,0.037-0.153,0.076c-0.076,0.267-0.153,0.496-0.19,0.763c0,0.076-0.039,0.115-0.039,0.19
		c-0.076,0.457-0.229,0.915-0.305,1.373c-0.039,0.381-0.076,0.8-0.115,1.183c-0.266,1.829-1.411,4.384-2.707,5.337
		c-2.594,1.526-4.081,2.594-6.674,2.594c-0.342,0-0.762-0.039-1.144-0.076C132.592,38.521,131.753,37.758,130.992,37.11z"/>
	<path d="M74.194,58.002c-0.534,1.297-1.106,2.402-1.945,3.394v-0.038c-0.305,0.381-0.61,0.8-0.915,1.22
		c-0.344,0.458-0.763,0.8-1.183,1.182c-0.726,0.648-1.487,1.297-2.289,1.868c-0.8,0.611-1.907,1.335-3.47,1.335
		c-0.801,0-1.755-0.229-2.136-0.724c-0.076-0.115-0.114-0.268-0.153-0.382c0-0.039-0.038-0.114-0.038-0.152
		c-0.419-2.25-0.458-5.683-0.458-8.657c0-0.648,0-1.258,0-1.831c0-0.38,0.039-0.8,0.039-1.181c0-2.632-0.305-5.263-0.305-8.504
		V45.19c0-1.221,0.19-2.669,1.105-3.013c0.916-0.381,1.907-0.534,2.823-0.534c2.402,0,4.728,1.03,6.063,1.792
		c0.915,0.497,1.373,1.335,2.02,2.06c1.182,1.373,2.06,3.889,2.06,6.407C75.414,54.304,74.956,56.325,74.194,58.002z M65.157,58.766
		c0,1.182,0.114,2.173,0.151,3.66c0,0.229,0.039,0.458,0.039,0.688v0.076c0,0.077,0.039,0.153,0.039,0.19
		c0.724-0.305,1.41-0.8,2.058-1.22c0.877-0.573,1.335-1.449,2.06-2.174c0.381-0.457,0.686-0.99,0.991-1.487
		c0.382-0.686,0.84-1.41,1.106-2.249c0.343-1.031,0.61-2.021,0.61-3.356v-0.571c-0.152-1.258-0.305-2.518-0.876-3.394
		c-0.573-0.839-1.031-1.755-1.755-2.479c-0.877-0.878-1.868-1.487-3.623-1.487h-0.571c-0.039,0-0.078-0.039-0.115-0.039v0.763
		c0.076,0.953,0.076,1.907,0.076,2.86c0,1.945-0.076,3.891-0.076,5.834c0,0.687-0.039,1.411-0.077,2.098
		C65.194,57.203,65.157,58.079,65.157,58.766z"/>
	<path d="M88.803,60.862c-0.267,0.039-0.496,0.039-0.762,0.076l-1.259,0.114c-1.715,0.192-3.66,0.192-5.452,0.419l-0.916,0.114
		c-0.342,0.573-0.533,1.221-0.876,1.831c-0.687,1.221-0.534,1.868-1.221,3.089c-0.115,0.229-0.266,0.495-0.457,0.687
		c-0.306,0.419-0.763,0.991-1.45,0.991c-0.19,0-0.381-0.038-0.571-0.115c-0.573-0.305-1.031-0.686-1.031-1.563
		c0-1.183,0.534-1.982,0.724-2.936c0.421-1.45,0.458-1.831,1.106-3.128c0.076-0.151,0.115-0.305,0.153-0.458
		c0.228-0.686,0.495-1.41,0.648-2.134c0.419-1.945,1.181-3.661,1.715-5.492c0.382-1.068,0.877-2.059,1.145-3.126
		c0.19-0.724,0.419-1.487,0.571-2.211c0.19-0.726,0.382-1.487,0.763-2.136c0.153-0.305,0.344-0.609,0.495-0.916
		c0.382-0.8,1.068-1.219,1.792-1.219c1.869,0,2.364,1.906,3.051,3.089c0.648,1.258,1.41,2.516,1.982,3.813l0.458,1.029
		c0.152,0.343,0.342,0.687,0.534,0.992l0.457,0.915c0.305,0.688,0.648,1.45,0.877,2.174c0.229,0.648,0.344,1.334,0.573,1.907
		c0.305,0.648,0.495,1.334,0.724,2.021c0.343,0.915,1.258,3.431,1.602,4.384c0.152,0.458,0.229,0.992,0.229,1.526
		c0,1.068-0.343,2.06-1.487,2.06h-0.039c-0.839,0-1.411-0.497-1.831-0.992c-0.457-0.61-1.41-2.745-1.678-3.547v-0.037
		C89.185,61.701,89.032,61.282,88.803,60.862z M81.788,57.622c0.076,0,0.151-0.039,0.228-0.039c0.572-0.076,1.106-0.152,1.679-0.19
		c1.373-0.229,2.363-0.724,3.584-1.144c-0.076-0.153-0.115-0.343-0.153-0.534c-0.534-1.564-0.763-2.403-1.297-3.891
		c-0.266-0.686-0.534-1.41-0.8-2.097c-0.076-0.19-0.153-0.42-0.267-0.61c-0.039,0.076-0.039,0.151-0.077,0.229
		c-0.457,1.258-0.839,2.363-1.182,3.584c-0.305,0.953-0.61,1.945-1.068,2.86c-0.113,0.266-0.152,0.534-0.267,0.8
		c-0.076,0.191-0.19,0.382-0.229,0.572C81.9,57.317,81.863,57.469,81.788,57.622z"/>
	<path d="M96.32,44.732c0-0.725,0.192-1.334,0.573-1.868c0.229-0.305,0.724-0.916,1.22-0.916l0.039,0.039
		c0.153,0,0.268,0.076,0.38,0.115c0.497,0.343,1.068,0.687,1.602,1.068c0.039,0.039,0.114,0.039,0.153,0.076
		c0.954,0.953,2.136,1.716,3.279,2.516c0.763,0.421,1.334,1.068,2.021,1.602c0.153,0.114,0.266,0.268,0.419,0.382
		c0.419,0.344,0.877,0.61,1.297,0.954c0.496,0.381,0.954,0.8,1.412,1.219c0.113,0.115,0.342,0.344,0.571,0.344h0.115v-0.229
		c0-0.229,0.039-0.419,0.039-0.61c0-0.419,0.037-0.8,0.037-1.22c0.115-2.098-0.19-5.034,1.602-5.644
		c0.114-0.039,0.229-0.078,0.343-0.078c0.8,0,1.221,0.878,1.334,1.526c0.153,0.763,0.153,1.526,0.229,2.288v0.039
		c0.039,0.343,0.115,0.724,0.115,1.068v1.029c0,0.343-0.037,0.687-0.037,1.03c0,0.342,0.037,0.648,0.037,0.991v2.25
		c0,0.802,0,1.563,0.039,2.365c0.037,0.381,0.076,0.763,0.076,1.144s-0.039,0.763-0.039,1.144c-0.037,0.763-0.037,1.487-0.076,2.25
		c0,0.573-0.037,1.106-0.037,1.678c0,0.19,0.037,0.344,0.037,0.534c0,0.343,0.039,0.763,0.039,1.106
		c0,0.838-0.076,1.639-0.344,2.287c-0.266,0.802-0.8,1.945-1.945,1.945c-1.068,0-1.792-0.763-1.792-1.755v-0.457
		c0-0.687,0.115-1.373,0.115-2.06c0.076-1.411,0.19-2.86,0.268-4.232v-2.136c0-0.419-0.192-0.686-0.382-0.915
		c-0.229-0.305-0.495-0.572-0.763-0.839c-0.419-0.343-0.915-0.534-1.373-0.838c-0.954-0.648-1.715-1.602-2.821-2.099
		c-0.344-0.152-0.687-0.305-0.992-0.495c-0.61-0.419-1.219-0.954-1.715-1.526c-0.306-0.305-0.648-0.647-1.03-0.915v0.229
		c0,0.305-0.038,0.571-0.038,0.877c0,0.609-0.039,1.295-0.039,1.906c0,0.571-0.039,1.183-0.039,1.753v0.534
		c0,0.343,0.039,0.724,0.039,1.068c0,0.381,0.039,0.763,0.039,1.144c0,0.382,0.038,0.724,0.038,1.106c0,0.381,0.039,0.8,0.039,1.182
		c0.037,0.8,0.037,1.639,0.037,2.517c0,0.992,0,2.021,0,3.013c0,1.258-0.152,2.821-1.334,2.821h-0.076
		c-0.763-0.076-1.526-0.724-1.678-1.448c-0.115-0.534-0.153-1.145-0.192-1.716c-0.076-0.458-0.076-0.953-0.076-1.45V61.93
		c0-0.266,0-0.571-0.039-0.839v-0.076c-0.038-2.518-0.152-5.568-0.342-8.618c-0.039-1.221-0.115-2.402-0.19-3.584
		c-0.039-1.335-0.114-2.631-0.192-3.852V44.732z"/>
	<path d="M117.145,44.732c0-0.725,0.191-1.334,0.572-1.868c0.229-0.305,0.725-0.916,1.22-0.916l0.039,0.039
		c0.153,0,0.268,0.076,0.381,0.115c0.497,0.343,1.068,0.687,1.602,1.068c0.039,0.039,0.115,0.039,0.153,0.076
		c0.953,0.953,2.135,1.716,3.279,2.516c0.763,0.421,1.334,1.068,2.021,1.602c0.153,0.114,0.266,0.268,0.419,0.382
		c0.419,0.344,0.877,0.61,1.297,0.954c0.495,0.381,0.953,0.8,1.411,1.219c0.113,0.115,0.342,0.344,0.571,0.344h0.114v-0.229
		c0-0.229,0.039-0.419,0.039-0.61c0-0.419,0.038-0.8,0.038-1.22c0.114-2.098-0.19-5.034,1.602-5.644
		c0.114-0.039,0.229-0.078,0.343-0.078c0.8,0,1.22,0.878,1.334,1.526c0.153,0.763,0.153,1.526,0.229,2.288v0.039
		c0.039,0.343,0.114,0.724,0.114,1.068v1.029c0,0.343-0.037,0.687-0.037,1.03c0,0.342,0.037,0.648,0.037,0.991v2.25
		c0,0.802,0,1.563,0.039,2.365c0.038,0.381,0.076,0.763,0.076,1.144S134,56.973,134,57.354c-0.038,0.763-0.038,1.487-0.076,2.25
		c0,0.573-0.037,1.106-0.037,1.678c0,0.19,0.037,0.344,0.037,0.534c0,0.343,0.039,0.763,0.039,1.106
		c0,0.838-0.076,1.639-0.343,2.287c-0.267,0.802-0.8,1.945-1.945,1.945c-1.068,0-1.792-0.763-1.792-1.755v-0.457
		c0-0.687,0.114-1.373,0.114-2.06c0.076-1.411,0.19-2.86,0.268-4.232v-2.136c0-0.419-0.191-0.686-0.382-0.915
		c-0.229-0.305-0.496-0.572-0.763-0.839c-0.419-0.343-0.915-0.534-1.373-0.838c-0.953-0.648-1.715-1.602-2.821-2.099
		c-0.343-0.152-0.687-0.305-0.992-0.495c-0.61-0.419-1.22-0.954-1.715-1.526c-0.307-0.305-0.648-0.647-1.031-0.915v0.229
		c0,0.305-0.037,0.571-0.037,0.877c0,0.609-0.039,1.295-0.039,1.906c0,0.571-0.039,1.183-0.039,1.753v0.534
		c0,0.343,0.039,0.724,0.039,1.068c0,0.381,0.039,0.763,0.039,1.144c0,0.382,0.037,0.724,0.037,1.106c0,0.381,0.039,0.8,0.039,1.182
		c0.039,0.8,0.039,1.639,0.039,2.517c0,0.992,0,2.021,0,3.013c0,1.258-0.153,2.821-1.335,2.821h-0.076
		c-0.763-0.076-1.526-0.724-1.678-1.448c-0.114-0.534-0.153-1.145-0.191-1.716c-0.076-0.458-0.076-0.953-0.076-1.45V61.93
		c0-0.266,0-0.571-0.039-0.839v-0.076c-0.037-2.518-0.152-5.568-0.342-8.618c-0.039-1.221-0.114-2.402-0.19-3.584
		c-0.039-1.335-0.114-2.631-0.191-3.852V44.732z"/>
	<path d="M147.009,41.644c0.153-0.076,0.305-0.076,0.495-0.076c0.419,0,0.802,0.19,0.954,0.648c0.039,0.152,0.077,0.266,0.077,0.458
		c-0.039,1.029-0.229,1.982-0.573,2.897c-0.419,0.992-0.763,2.021-1.144,3.052c-0.687,1.792-1.335,3.279-2.097,5.033
		c-0.078,0.19-0.115,0.534-0.115,0.954c0,0.534,0.037,1.182,0.076,1.755c0.039,0.761,0.115,0.724,0.229,1.944
		c0.152,1.526,0.267,1.373,0.267,3.013v1.068c0,1.563-0.229,1.753-0.534,2.821c-0.114,0.419-0.457,0.877-0.915,0.877
		c-0.763,0-0.839-0.724-0.992-1.334c-0.534-2.518-0.686-3.928-0.686-7.017c0-0.763,0-1.487-0.077-2.213
		c-0.19-1.563-0.228-3.279-0.647-4.613c-0.573-1.144-2.289-2.669-3.242-3.47c-0.8-0.687-1.524-1.679-1.792-2.784
		c-0.039-0.153-0.039-0.268-0.039-0.419c0-0.609,0.306-1.221,0.916-1.221c0.534,0,1.029,0.382,1.373,0.687
		c0.381,0.266,0.763,0.573,1.068,0.915c0.534,0.573,0.876,1.068,1.41,1.678c0.497,0.458,1.145,1.03,1.679,1.487
		c0.534-0.534,0.8-1.487,1.83-2.936c0.611-0.915,0.916-1.982,1.716-2.745C146.436,41.873,146.704,41.721,147.009,41.644z"/>
	<path d="M33.534,84.729c0,0,0.039-0.114,0.039-0.305c0-0.114,0-0.229-0.039-0.381c0-0.039,0-0.572-0.039-0.611
		c-0.076-0.038-0.19-0.076-0.342-0.076c-0.306,0-0.687,0.076-0.953,0.076h-0.115c-0.801-0.113-1.411-0.038-2.021-0.342
		c-0.344-0.153-0.611-0.992-0.802-1.335c-0.151-0.229-0.19-0.495-0.19-0.686c0-0.839,0.953-1.297,1.906-1.335
		c0.19,0,0.344-0.037,0.534-0.037c0.724,0,1.487,0.076,2.211,0.076h0.648c0.877-0.115,1.755-0.268,2.708-0.344
		c0.495-0.076,1.068-0.266,1.6-0.266c0.916,0,1.221,0.724,1.221,1.678c0,1.334-1.602,1.182-2.594,1.448
		c-0.266,0.076-0.571,0.115-0.839,0.153c-0.076,0.229-0.076,0.495-0.114,0.8c0,0.268,0.039,0.572,0,0.877
		c0,0.343-0.038,0.153-0.076,0.495c-0.38,3.966-2.326,6.407-4.728,8.199c-0.534,0.419-1.45,0.61-2.403,0.61
		c-1.715,0-2.821-0.763-3.736-1.602c-1.679-1.487-2.403-4.118-2.747-6.939c-0.037-0.458-0.076-0.916-0.076-1.373
		c0-0.687,0-1.412,0.039-2.098c0.037-1.754,0.571-3.126,1.105-4.423c1.335-3.165,3.318-5.91,6.597-7.131
		c0.61-0.228,1.297-0.305,2.097-0.305h0.726c1.373,0.039,2.288,0.687,2.897,1.526c0.344,0.458,0.611,0.915,0.611,1.602
		c0,0.648-0.421,1.334-0.84,1.831c-0.19,0.19-0.571,0.266-0.99,0.266c-0.382,0-0.763-0.076-0.992-0.153
		c-0.61-0.266-1.524-0.534-2.44-0.534c-1.753,0-2.555,1.26-3.318,2.289c-1.068,1.334-1.22,1.982-1.753,3.813
		c-0.305,1.068-0.419,2.25-0.573,3.432c-0.076,0.496-0.114,1.029-0.114,1.563v0.343c0.306,2.44,0.877,5.11,3.662,5.11
		C32.427,90.641,33.534,87.818,33.534,84.729z"/>
	<path d="M42.004,88.047c0-2.212-0.115-4.309-0.19-6.597c0-0.229-0.039-0.458-0.039-0.648v-0.686l-0.038-0.419v-1.45
		c0-0.266,0-0.534-0.039-0.8c0-0.114-0.039-0.268-0.039-0.382c-0.037-0.267-0.037-0.534-0.037-0.8v-0.115
		c0-0.343-0.039-0.686-0.039-1.029c0-0.19,0.039-0.344,0.039-0.534c0-0.229,0-0.458-0.039-0.687c0-1.182,0.076-3.089,0.572-3.928
		c0.267-0.419,0.762-0.686,1.22-0.876c0.573-0.306,2.365-0.153,3.318-0.343c0.229-0.039,0.419-0.076,0.61-0.076h1.602
		c0.19,0,0.344,0.037,0.534,0.037c0.38,0,0.724,0.039,1.106,0.076h0.151c2.25,0.268,4.004,1.145,4.423,3.242
		c0.039,0.19,0.077,0.38,0.077,0.534c0,0.344-0.039,0.686-0.039,1.029l-0.039,0.076c-0.152,1.641-0.534,3.204-1.258,4.234
		c-0.266,0.305-0.457,0.647-0.762,0.954c-0.153,0.19-0.306,0.342-0.458,0.534c-0.076,0.113-0.229,0.19-0.305,0.305
		c0.229,0.495,0.381,0.99,0.648,1.448c0.19,0.305,0.228,0.61,0.419,0.915l0.686,1.373c0.305,0.611,0.572,1.182,0.877,1.831
		c0.114,0.268,0.343,0.497,0.458,0.802c0.534,0.838,1.029,1.829,1.334,2.974c0.076,0.228,0.153,0.495,0.153,0.762
		c0.037,0.229,0.037,0.458,0.037,0.726v0.266c0,0.19-0.037,0.344-0.076,0.534v0.076c-0.115,0.497-0.19,0.916-0.534,1.182
		c-0.343,0.305-0.724,0.534-1.221,0.534c-0.305,0-0.647-0.152-0.876-0.267c-0.382-0.191-0.763-0.497-0.992-0.916
		c-0.229-0.305-0.343-0.724-0.495-1.029c-0.115-0.229-0.344-0.61-0.382-0.877c-0.19-0.571-0.305-1.144-0.534-1.639
		c-0.305-0.611-0.61-1.297-0.839-1.984c-0.152-0.305-0.229-0.61-0.381-0.915c-0.305-0.534-0.763-1.068-0.992-1.678
		c-0.305-0.572-0.496-0.953-0.915-1.526c-0.114-0.151-0.229-0.343-0.419-0.495c-0.039-0.039-0.114-0.076-0.153-0.114
		c-0.076,0-0.19,0.076-0.267,0.076c-0.077,0.039-0.19,0.039-0.268,0.039c-0.343,0.076-0.686,0.152-1.067,0.19l-0.571,0.114
		c-0.153,0.039-0.648,0.039-0.802,0.039v0.076c0,0.115-0.037,0.266-0.037,0.458c0,2.402,0.114,4.996,0.114,7.321
		c0,0.152-0.039,0.305-0.039,0.457v0.153c0,1.373-0.229,2.326-0.801,3.05c-0.113,0.153-0.457,0.268-0.686,0.268
		c-0.076,0-0.153-0.039-0.229-0.039c-1.334-0.419-1.526-2.326-1.526-4.042C41.966,89.229,42.004,88.62,42.004,88.047z
		 M45.169,78.781v0.038h0.039c0.267,0.039,0.496,0.076,0.686,0.076h0.229c1.182-0.19,2.211-0.419,3.165-0.724
		c1.373-0.573,2.594-1.373,2.669-3.318v-0.038c0-0.801-0.457-1.411-0.876-1.831c-0.421-0.305-1.106-0.419-1.602-0.534
		c-0.419-0.076-0.877-0.114-1.297-0.114h-1.258c-0.572,0.039-0.992,0.19-1.373,0.381v0.192c-0.039,0.419-0.039,0.838-0.077,1.258
		c0,0.305-0.038,0.61-0.038,0.915c0,0.268-0.039,0.458-0.039,0.725l-0.039,0.458v0.229C45.359,77.293,45.246,78.018,45.169,78.781z"
		/>
	<path d="M72.094,87.704c-0.266,0.039-0.495,0.039-0.761,0.076l-1.26,0.114c-1.715,0.192-3.66,0.192-5.452,0.419l-0.916,0.114
		c-0.342,0.573-0.532,1.221-0.876,1.831c-0.687,1.221-0.534,1.868-1.221,3.089c-0.115,0.229-0.267,0.495-0.457,0.687
		c-0.306,0.419-0.763,0.99-1.45,0.99c-0.19,0-0.381-0.037-0.571-0.114c-0.572-0.305-1.03-0.686-1.03-1.563
		c0-1.183,0.534-1.982,0.724-2.936c0.421-1.45,0.458-1.831,1.106-3.127c0.076-0.152,0.114-0.305,0.153-0.458
		c0.228-0.686,0.495-1.41,0.648-2.134c0.419-1.945,1.181-3.661,1.714-5.492c0.382-1.067,0.877-2.058,1.146-3.126
		c0.19-0.724,0.419-1.487,0.571-2.211c0.19-0.726,0.382-1.487,0.763-2.136c0.153-0.305,0.343-0.61,0.495-0.916
		c0.382-0.8,1.068-1.219,1.792-1.219c1.87,0,2.365,1.906,3.052,3.089c0.648,1.258,1.41,2.516,1.982,3.813l0.458,1.029
		c0.152,0.343,0.342,0.687,0.534,0.992l0.457,0.915c0.305,0.687,0.648,1.45,0.877,2.174c0.229,0.648,0.343,1.334,0.572,1.907
		c0.305,0.648,0.496,1.334,0.725,2.021c0.343,0.915,1.258,3.431,1.602,4.384c0.152,0.458,0.229,0.992,0.229,1.526
		c0,1.068-0.344,2.06-1.487,2.06h-0.039c-0.839,0-1.411-0.497-1.831-0.992c-0.457-0.61-1.41-2.746-1.678-3.547v-0.037
		C72.477,88.542,72.323,88.123,72.094,87.704z M65.079,84.463c0.076,0,0.152-0.039,0.228-0.039c0.573-0.076,1.106-0.152,1.679-0.19
		c1.373-0.229,2.363-0.724,3.584-1.144c-0.076-0.153-0.114-0.344-0.153-0.534c-0.534-1.564-0.763-2.403-1.297-3.89
		c-0.266-0.686-0.534-1.41-0.8-2.097c-0.076-0.19-0.153-0.419-0.266-0.609c-0.039,0.076-0.039,0.151-0.077,0.229
		c-0.457,1.258-0.839,2.363-1.183,3.584c-0.305,0.953-0.61,1.945-1.068,2.86c-0.113,0.266-0.151,0.534-0.266,0.8
		c-0.076,0.191-0.19,0.382-0.229,0.572C65.192,84.158,65.155,84.31,65.079,84.463z"/>
	<path d="M93.837,72.832c-0.192,0-0.419-0.076-0.611-0.076c-0.19,0-0.381-0.076-0.495-0.19c-0.076,0-0.153,0-0.229-0.039
		c-0.686-0.229-1.868-0.648-2.86-0.648c-1.029,0-1.792,0.648-2.136,1.373c-0.266,0.687-0.419,1.335-0.419,2.25v0.19
		c0,0.307-0.037,0.648,0,0.992c0.115,0.915,0.419,1.64,0.839,2.326c0.268,0.382,0.724,0.688,0.992,1.106
		c1.297,1.792,2.555,4.576,2.555,7.168c0,1.907-0.648,3.699-2.479,4.881c-0.152,0.076-0.344,0.19-0.496,0.268
		c-0.495,0.266-1.373,0.571-1.868,0.571h-1.26c-0.305,0-0.686-0.037-0.99-0.037c-0.382,0-0.725-0.077-1.144-0.115
		c-0.42-0.077-0.84-0.114-1.145-0.268c-0.076-0.037-0.114-0.037-0.19-0.037c-0.877-0.268-1.487-0.648-2.021-1.26
		c-0.343-0.38-0.763-0.876-0.763-1.487c0-0.228,0.039-0.457,0.191-0.686c0.228-0.609,0.686-1.067,1.563-1.067
		c0.99,0,1.639,0.686,2.364,1.029c0.381,0.153,0.839,0.305,1.373,0.305h1.029c0.954-0.19,1.639-0.762,2.021-1.524l0.114-0.458
		c0.037-0.229,0.037-0.458,0.037-0.686c0-0.229-0.037-0.458-0.037-0.688c-0.039-0.38-0.153-0.724-0.268-1.067v-0.039
		c-0.229-0.609-0.534-1.105-0.915-1.524c-0.725-0.953-1.412-2.021-2.25-2.86c-0.838-0.838-1.602-1.792-1.602-3.432
		c0-1.602,0.268-4.042,1.487-5.605c1.45-1.906,4.042-2.745,5.873-2.898h1.068c1.448,0.077,2.707,0.153,3.623,1.144
		c0.228,0.192,0.228,0.382,0.419,0.573c0.152,0.305,0.229,0.648,0.229,1.029c0,0.838-0.458,1.258-1.068,1.487H93.837z"/>
	<path d="M109.169,72.832c-0.192,0-0.419-0.076-0.611-0.076c-0.19,0-0.38-0.076-0.495-0.19c-0.076,0-0.153,0-0.229-0.039
		c-0.686-0.229-1.868-0.648-2.86-0.648c-1.029,0-1.792,0.648-2.136,1.373c-0.266,0.687-0.419,1.335-0.419,2.25v0.19
		c0,0.307-0.037,0.648,0,0.992c0.115,0.915,0.419,1.64,0.839,2.326c0.268,0.382,0.725,0.688,0.992,1.106
		c1.297,1.792,2.555,4.576,2.555,7.168c0,1.907-0.648,3.699-2.479,4.881c-0.152,0.076-0.343,0.19-0.495,0.268
		c-0.496,0.266-1.373,0.571-1.868,0.571h-1.259c-0.305,0-0.686-0.037-0.991-0.037c-0.382,0-0.724-0.077-1.144-0.115
		c-0.421-0.077-0.84-0.114-1.145-0.268c-0.076-0.037-0.115-0.037-0.19-0.037c-0.877-0.268-1.487-0.648-2.021-1.26
		c-0.344-0.38-0.763-0.876-0.763-1.487c0-0.228,0.039-0.457,0.192-0.686c0.228-0.609,0.686-1.067,1.563-1.067
		c0.991,0,1.639,0.686,2.365,1.029c0.381,0.153,0.839,0.305,1.373,0.305h1.029c0.953-0.19,1.639-0.762,2.021-1.524l0.114-0.458
		c0.038-0.229,0.038-0.458,0.038-0.686c0-0.229-0.038-0.458-0.038-0.688c-0.039-0.38-0.153-0.724-0.268-1.067v-0.039
		c-0.229-0.609-0.534-1.105-0.915-1.524c-0.724-0.953-1.411-2.021-2.25-2.86c-0.839-0.838-1.602-1.792-1.602-3.432
		c0-1.602,0.268-4.042,1.487-5.605c1.45-1.906,4.042-2.745,5.873-2.898h1.068c1.449,0.077,2.707,0.153,3.623,1.144
		c0.228,0.192,0.228,0.382,0.419,0.573c0.152,0.305,0.229,0.648,0.229,1.029c0,0.838-0.458,1.258-1.067,1.487H109.169z"/>
	<path d="M110.698,85.987v-0.076c0-0.763,0-1.487,0.114-2.25c0.153-1.183,0.458-2.326,0.802-3.355
		c0.495-1.448,1.144-2.822,1.906-4.042c0.19-0.305,0.305-0.687,0.534-0.953c1.448-1.716,2.821-3.279,5.147-3.279
		c0.496,0,1.029,0.076,1.641,0.229c0.228,0.076,0.419,0.19,0.647,0.266c0.268,0.114,0.611,0.229,0.84,0.419
		c0.38,0.268,0.647,0.648,0.953,1.03c0.495,0.61,0.99,1.181,1.334,1.907c0.344,0.762,0.877,1.487,0.877,2.555v1.105
		c0,0.382-0.039,0.687-0.039,1.068c-0.115,2.135-0.419,4.157-1.183,5.681c-0.19,0.421-0.38,0.801-0.571,1.182
		c-0.192,0.305-0.419,0.611-0.611,0.916c-0.19,0.305-0.342,0.61-0.534,0.915c-0.419,0.687-0.954,1.221-1.524,1.755
		c-0.61,0.534-1.144,0.991-2.097,1.22c-0.611,0.114-1.145,0.19-1.793,0.19h-0.457c-0.382,0-0.725-0.037-1.106-0.037
		c-0.381,0-0.8-0.039-1.144-0.192c-0.381-0.152-0.839-0.266-1.183-0.496c-0.724-0.419-1.182-1.334-1.639-2.058
		c-0.268-0.382-0.458-0.916-0.573-1.411C110.889,87.589,110.698,86.826,110.698,85.987z M119.926,76.836
		c-0.419,0.076-0.8,0.228-1.22,0.381c-1.411,0.496-1.945,1.258-2.594,2.479c-0.305,0.534-0.534,1.105-0.839,1.639
		c-0.458,1.221-1.029,2.25-1.029,3.891c0,0.305-0.039,0.647-0.039,0.953v0.305c0,0.876,0.877,1.449,1.563,1.678
		c0.268,0.039,0.497,0.039,0.763,0.039c0.153,0,0.344,0.038,0.497,0.038h0.342c1.068-0.229,1.869-0.839,2.479-1.524
		c1.183-1.564,1.907-3.509,2.06-6.063c0.037-0.534,0.113-1.106,0.113-1.641v-0.38c-0.152-0.992-0.61-1.564-1.563-1.792H119.926z"/>
	<path d="M148.035,72.07c0,2.173-0.61,3.965-0.992,5.795l-0.229,1.144l-0.113,0.802c0,0.037-0.039,0.037-0.039,0.076v0.115
		c-0.076,0.381-0.115,0.763-0.19,1.144v-0.19c-0.192,1.41-0.497,2.631-0.724,3.965c-0.344,1.183-0.497,2.518-0.687,3.813
		c-0.076,0.458-0.076,0.992-0.267,1.411c-0.343,0.877-0.877,1.602-1.908,1.602c-0.228,0-0.534-0.039-0.839-0.151
		c-1.258-0.382-1.868-1.45-2.555-2.44c-0.876-1.068-1.524-2.479-2.097-3.852c-0.419-0.839-0.915-1.526-1.373-2.289
		c-0.076-0.115-0.114-0.267-0.19-0.381c-0.573,1.334-1.068,2.631-1.641,3.928c-0.152,0.343-0.228,0.648-0.381,0.992l-0.572,1.258
		c-0.152,0.305-0.342,0.534-0.534,0.8c-0.381,0.497-0.724,1.068-1.639,1.068c-0.763,0-1.068-0.686-1.335-1.183
		c-0.381-0.763-0.571-1.602-0.762-2.555l-0.229-1.144c-0.114-0.724-0.229-1.487-0.229-2.25c0-0.686-0.19-1.373-0.19-2.058
		c0-1.144-0.114-2.211-0.19-3.318v-0.61c0-1.45,0.038-2.784,0.228-4.081c0.191-1.105,0.306-2.821,1.679-2.821
		c1.144,0,1.487,1.029,1.487,2.212v1.411c-0.039,0.763-0.039,1.524-0.039,2.287v2.326c0,0.344,0.076,0.763,0.076,1.106v0.381
		c0.115,0.801,0.229,1.563,0.229,2.44c0,0.114,0.039,0.229,0.039,0.343c0.305-0.458,0.534-0.953,0.762-1.448
		c0.153-0.344,0.382-0.648,0.534-0.992c0.382-0.953,0.763-2.06,1.45-2.745c0.381-0.458,0.877-1.144,1.602-1.144
		c0.915,0,1.068,1.029,1.373,1.639c0.267,0.61,0.648,1.221,0.877,1.87l0.038,0.037v0.039c0.076,0.076,0.076,0.152,0.076,0.229
		c0,0.037,0.039,0.037,0.039,0.076c0.229,0.534,0.573,1.029,0.839,1.563c0.153,0.268,0.229,0.573,0.382,0.839
		c0.381,0.611,0.839,1.145,1.181,1.792c0.306,0.573,0.534,1.068,0.953,1.487c0.382-0.876,0.573-1.906,0.84-2.897
		c0.419-1.412,0.61-2.784,0.915-4.232c0.344-2.441,0.877-4.767,1.602-6.827c0.266-0.801,0.648-1.831,1.716-1.831
		C147.768,70.62,148.035,71.23,148.035,72.07z"/>
</g>
</svg>
