<?xml version="1.0" standalone="no"?>
<!DOCTYPE svg PUBLIC "-//W3C//DTD SVG 20010904//EN"
 "http://www.w3.org/TR/2001/REC-SVG-20010904/DTD/svg10.dtd">
<svg version="1.0" xmlns="http://www.w3.org/2000/svg"
 width="700.000000pt" height="700.000000pt" viewBox="0 0 700.000000 700.000000"
 preserveAspectRatio="xMidYMid meet">
<metadata>
Created by potrace 1.11, written by Peter Selinger 2001-2013
</metadata>
<g transform="translate(0.000000,700.000000) scale(0.100000,-0.100000)"
fill="#000000" stroke="none">
<path d="M3855 6253 c-162 -14 -419 -71 -595 -131 -275 -94 -566 -234 -695
-332 -27 -21 -68 -47 -90 -58 -74 -37 -146 -99 -354 -305 l-206 -205 -76 -7
c-157 -15 -473 -20 -700 -11 -221 8 -245 7 -358 -13 -184 -32 -373 -102 -416
-153 -14 -16 -26 -26 -26 -21 -1 4 -5 -10 -9 -32 -13 -65 -4 -88 43 -109 23
-10 50 -22 59 -27 10 -5 26 -9 36 -9 25 0 72 23 72 35 0 6 20 22 44 38 34 21
55 27 99 27 31 0 59 5 62 10 4 6 12 7 18 3 7 -5 62 -9 122 -10 61 -1 144 -4
185 -8 41 -3 156 -7 255 -9 222 -5 253 -6 238 -13 -8 -3 -11 -14 -7 -29 5 -19
3 -23 -9 -19 -9 4 -16 -1 -20 -14 -4 -18 -2 -20 21 -15 l27 5 -22 -19 c-13
-11 -23 -26 -23 -33 0 -7 -12 -23 -26 -34 -25 -20 -25 -22 -9 -38 16 -16 15
-19 -7 -45 -13 -15 -31 -48 -42 -72 -10 -25 -26 -60 -35 -79 -12 -25 -13 -35
-4 -38 7 -2 10 -10 7 -18 -3 -7 0 -16 6 -20 8 -5 5 -11 -7 -21 -13 -10 -14
-13 -4 -14 11 0 11 -4 -2 -18 -10 -10 -17 -26 -17 -35 0 -9 -6 -17 -13 -17
-14 0 -18 -14 -18 -60 0 -39 -31 -100 -52 -100 -9 0 -56 24 -103 53 l-86 54
-26 -26 c-30 -29 -30 -58 -1 -83 10 -9 19 -21 19 -27 0 -12 10 -18 122 -81 67
-38 77 -46 72 -66 -3 -12 -1 -25 5 -28 14 -9 14 -46 0 -46 -8 0 -8 -5 1 -15 8
-9 9 -25 4 -42 -4 -16 -6 -33 -5 -40 2 -17 -39 -43 -70 -43 -15 0 -46 11 -70
24 -62 35 -118 42 -148 18 -19 -15 -21 -23 -13 -38 27 -50 75 -79 185 -115
l111 -36 3 -64 c7 -138 54 -371 93 -467 18 -42 36 -81 40 -87 4 -5 10 -27 14
-47 4 -22 15 -42 26 -48 11 -6 20 -19 20 -29 0 -10 8 -29 19 -42 26 -33 51
-85 51 -104 0 -9 16 -31 35 -49 36 -34 46 -66 20 -66 -9 0 -12 -6 -8 -15 3 -9
10 -14 16 -12 13 4 60 -43 63 -63 1 -8 5 -25 9 -37 6 -19 3 -21 -27 -20 -59 1
-128 -14 -128 -27 0 -8 -19 -16 -49 -20 -40 -5 -54 -13 -75 -40 l-26 -34 40
-36 c47 -42 65 -44 171 -17 112 29 147 32 153 15 3 -8 10 -14 16 -14 7 0 8 6
0 19 -14 26 -13 31 6 31 8 0 12 -5 8 -11 -7 -12 10 -52 35 -82 15 -17 14 -18
-14 -12 l-30 6 25 -15 c14 -8 19 -15 13 -16 -24 0 -13 -20 11 -20 14 0 26 -7
29 -17 2 -10 8 -26 12 -35 5 -13 2 -18 -9 -18 -14 0 -11 -7 11 -35 15 -19 34
-35 42 -35 8 0 11 -6 7 -15 -3 -8 -1 -15 4 -15 5 0 13 -12 16 -26 6 -23 10
-26 40 -21 l34 6 -15 -28 c-12 -25 -12 -31 1 -50 8 -11 29 -28 45 -37 19 -10
29 -21 25 -30 -3 -8 5 -21 19 -30 14 -9 25 -23 25 -32 0 -8 7 -24 16 -34 16
-16 15 -18 0 -24 -28 -11 -165 3 -246 25 -41 11 -88 21 -105 21 -31 0 -133 35
-149 51 -6 5 -28 9 -51 9 -22 0 -50 6 -61 14 -11 8 -38 19 -61 25 -22 6 -76
34 -119 62 -43 29 -72 44 -64 34 14 -17 13 -17 -10 -10 -39 12 -132 60 -248
129 -145 86 -166 96 -201 96 -33 0 -101 -49 -168 -123 -73 -79 -68 -133 14
-168 26 -11 104 -58 173 -104 70 -47 133 -85 142 -85 8 0 28 -10 43 -22 35
-27 308 -152 405 -185 41 -14 139 -36 217 -49 143 -24 210 -42 168 -44 -17 0
-18 -2 -4 -10 30 -18 204 -41 344 -45 77 -3 183 -10 235 -16 62 -7 127 -8 188
-2 l92 9 32 -33 c17 -18 50 -42 72 -53 23 -11 37 -20 33 -20 -23 0 20 -41 71
-68 32 -17 76 -47 96 -66 20 -18 54 -42 74 -52 20 -11 39 -22 40 -26 2 -5 18
-8 35 -8 40 0 125 -39 152 -70 30 -33 70 -51 154 -66 130 -24 195 -40 226 -56
17 -9 53 -19 80 -23 28 -4 67 -16 87 -26 22 -11 71 -22 115 -25 43 -4 85 -10
93 -14 8 -5 31 -3 51 4 25 9 40 9 52 2 21 -13 171 8 203 29 13 8 36 15 52 15
50 0 201 86 262 149 63 65 114 145 106 167 -10 26 -66 15 -154 -30 -127 -65
-191 -79 -357 -80 -120 -1 -144 2 -167 17 -19 13 -57 21 -130 27 -80 6 -137
18 -253 55 -172 54 -182 58 -212 93 -13 14 -23 20 -23 14 0 -26 -73 8 -256
119 -150 90 -223 143 -203 147 8 1 21 13 29 26 8 13 76 92 149 175 107 120
158 188 246 329 102 163 113 177 138 175 28 -2 146 -57 297 -138 47 -26 104
-49 127 -52 39 -5 43 -3 53 21 5 15 10 33 10 39 0 14 -285 189 -381 234 -47
21 -69 37 -69 49 0 10 21 80 46 158 37 112 44 148 39 181 -9 61 6 70 103 60
42 -5 100 -9 127 -9 50 -1 50 -1 47 29 -5 39 -13 48 -80 86 -65 36 -112 52
-112 38 0 -6 -5 -7 -11 -4 -12 8 -2 159 12 187 6 10 5 18 -2 20 -7 2 -7 13 2
33 9 24 16 257 10 342 -1 6 -10 15 -21 18 -16 5 -18 10 -10 24 5 10 7 21 4 24
-3 3 -7 32 -10 64 -11 154 -79 376 -131 424 -14 13 -34 43 -45 66 -11 24 -35
56 -53 71 -17 16 -35 41 -39 55 -3 15 -20 42 -36 60 -16 19 -38 55 -49 81 -11
25 -27 49 -36 52 -8 3 -13 10 -10 14 3 5 -6 21 -19 37 -13 15 -44 60 -68 98
-53 81 -149 185 -172 185 -9 0 -16 4 -16 10 0 5 -21 24 -47 41 -27 18 -62 47
-80 65 -20 20 -143 87 -336 183 -168 84 -313 161 -323 172 -18 20 -16 29 30
108 13 22 212 203 266 242 25 18 83 55 130 82 47 27 89 55 93 63 4 7 33 21 63
30 30 9 101 36 157 61 185 81 279 114 426 149 80 19 164 36 186 39 22 2 76 9
120 14 44 5 83 7 87 5 5 -3 8 2 8 10 0 12 5 14 26 6 14 -6 62 -10 107 -11 45
0 105 -5 132 -10 28 -6 73 -13 100 -16 28 -3 55 -9 61 -14 6 -5 37 -18 69 -29
32 -11 81 -35 109 -54 28 -18 71 -44 96 -56 89 -45 383 -278 473 -375 146
-157 202 -224 273 -325 44 -62 104 -147 133 -189 115 -160 231 -344 231 -366
0 -9 8 -32 19 -53 16 -32 41 -124 41 -151 0 -16 -28 -20 -62 -10 -18 5 -73 16
-123 25 -49 8 -135 28 -190 44 -55 16 -127 34 -160 40 -80 15 -156 39 -176 56
-8 8 -25 14 -37 14 -12 0 -131 27 -264 61 -295 74 -321 75 -443 25 -99 -41
-167 -78 -196 -107 -16 -16 -19 -28 -13 -72 11 -87 49 -111 249 -156 104 -24
128 -33 415 -151 194 -81 255 -100 318 -100 27 0 64 -11 101 -30 55 -27 71
-30 236 -40 134 -9 195 -8 247 0 75 13 173 4 318 -28 59 -13 128 -17 326 -17
291 0 285 -2 305 94 7 31 18 61 24 66 22 18 75 134 75 164 0 17 -6 31 -16 35
-9 3 -131 6 -273 6 -219 0 -416 11 -429 25 -2 2 2 21 9 42 7 21 14 79 14 128
0 86 -2 94 -43 180 -62 130 -129 243 -176 300 -23 28 -53 68 -67 90 -15 22
-55 72 -90 111 -35 38 -77 95 -94 126 -16 31 -39 61 -50 66 -12 6 -43 36 -71
67 -27 32 -67 74 -89 94 -68 61 -135 134 -141 153 -3 10 -12 18 -20 18 -8 0
-14 8 -14 18 0 10 -26 33 -69 59 -46 29 -71 51 -75 67 -6 24 -158 146 -216
174 -33 16 -50 26 -145 89 -91 60 -292 133 -434 158 -76 14 -222 17 -326 8z
m-1431 -1411 c424 -211 551 -314 690 -563 38 -68 108 -185 156 -259 48 -74 97
-153 108 -175 25 -51 68 -188 74 -241 5 -39 5 -40 -22 -36 -22 3 -32 -3 -50
-28 -22 -31 -23 -36 -13 -112 6 -44 15 -84 20 -89 5 -5 24 3 45 21 l36 30 6
-36 c10 -51 5 -186 -8 -206 -8 -14 -7 -24 3 -40 9 -15 10 -23 3 -26 -8 -2 -8
-11 -1 -29 11 -28 6 -62 -45 -305 -63 -300 -199 -671 -310 -847 -67 -105 -167
-169 -281 -179 -62 -5 -63 -4 -107 37 -25 22 -55 41 -67 41 -12 0 -21 6 -21
15 0 8 -5 15 -11 15 -5 0 -7 5 -4 10 10 17 -16 41 -36 35 -43 -14 -405 463
-644 850 -248 401 -328 678 -307 1061 8 147 13 177 36 231 14 34 26 75 26 90
1 15 7 39 15 53 8 14 14 37 15 52 0 34 47 165 71 199 10 14 16 34 13 45 -3 11
9 42 30 74 37 60 84 152 141 275 20 43 52 99 72 123 35 43 38 44 81 39 31 -3
123 -44 286 -125z"/>
</g>
</svg>
